HIERARCHY
ROOT hip
{
  OFFSET 0 0 0
  CHANNELS 6 Xposition Yposition Zposition Zrotation Yrotation Xrotation
  JOINT abdomen
  {
    OFFSET 0 20.6881 -0.73152
    CHANNELS 3 Zrotation Xrotation Yrotation
    JOINT chest
    {
      OFFSET 0 11.7043 -0.48768
      CHANNELS 3 Zrotation Xrotation Yrotation
      JOINT neck
      {
        OFFSET 0 22.1894 -2.19456
        CHANNELS 3 Zrotation Xrotation Yrotation
        JOINT head
        {
          OFFSET -0.24384 7.07133 1.2192
          CHANNELS 3 Zrotation Xrotation Yrotation
          JOINT leftEye
          {
            OFFSET 4.14528 8.04674 8.04672
            CHANNELS 3 Zrotation Xrotation Yrotation
            End Site
            {
              OFFSET 1 0 0
            }
          }
          JOINT rightEye
          {
            OFFSET -3.6576 8.04674 8.04672
            CHANNELS 3 Zrotation Xrotation Yrotation
            End Site
            {
              OFFSET 1 0 0
            }
          }
        }
      }
      JOINT rCollar
      {
        OFFSET -2.68224 19.2634 -4.8768
        CHANNELS 3 Zrotation Xrotation Yrotation
        JOINT rShldr
        {
          OFFSET -8.77824 -1.95073 1.46304
          CHANNELS 3 Zrotation Xrotation Yrotation
          JOINT rForeArm
          {
            OFFSET -28.1742 -1.7115 0.48768
            CHANNELS 3 Zrotation Xrotation Yrotation
            JOINT rHand
            {
              OFFSET -22.5879 0.773209 7.07136
              CHANNELS 3 Zrotation Xrotation Yrotation
              JOINT rThumb1
              {
                OFFSET -1.2192 -0.487915 3.41376
                CHANNELS 3 Zrotation Xrotation Yrotation
                JOINT rThumb2
                {
                  OFFSET -3.37035 -0.52449 3.41376
                  CHANNELS 3 Zrotation Xrotation Yrotation
                  End Site
                  {
                    OFFSET -1.78271 -1.18214 1.43049
                  }
                }
              }
              JOINT rIndex1
              {
                OFFSET -7.75947 0.938293 5.60832
                CHANNELS 3 Zrotation Xrotation Yrotation
                JOINT rIndex2
                {
                  OFFSET -2.54057 -0.884171 1.56538
                  CHANNELS 3 Zrotation Xrotation Yrotation
                  End Site
                  {
                    OFFSET -1.62519 -0.234802 1.16502
                  }
                }
              }
              JOINT rMid1
              {
                OFFSET -8.24714 1.18213 3.41376
                CHANNELS 3 Zrotation Xrotation Yrotation
                JOINT rMid2
                {
                  OFFSET -3.10165 -0.590103 1.0647
                  CHANNELS 3 Zrotation Xrotation Yrotation
                  End Site
                  {
                    OFFSET -2.48547 -0.328903 0.83742
                  }
                }
              }
              JOINT rRing1
              {
                OFFSET -8.82822 0.546677 1.51678
                CHANNELS 3 Zrotation Xrotation Yrotation
                JOINT rRing2
                {
                  OFFSET -2.60934 -0.819778 -0.0198488
                  CHANNELS 3 Zrotation Xrotation Yrotation
                  End Site
                  {
                    OFFSET -2.33842 -0.294052 0.168128
                  }
                }
              }
              JOINT rPinky1
              {
                OFFSET -8.27202 -0.0477905 -0.4584
                CHANNELS 3 Zrotation Xrotation Yrotation
                JOINT rPinky2
                {
                  OFFSET -1.82734 -0.647385 -0.700984
                  CHANNELS 3 Zrotation Xrotation Yrotation
                  End Site
                  {
                    OFFSET -1.69225 -0.51767 -0.607171
                  }
                }
              }
            }
          }
        }
      }
      JOINT lCollar
      {
        OFFSET 2.68224 19.2634 -4.8768
        CHANNELS 3 Zrotation Xrotation Yrotation
        JOINT lShldr
        {
          OFFSET 8.77824 -1.95073 1.46304
          CHANNELS 3 Zrotation Xrotation Yrotation
          JOINT lForeArm
          {
            OFFSET 28.1742 -1.7115 0.48768
            CHANNELS 3 Zrotation Xrotation Yrotation
            JOINT lHand
            {
              OFFSET 22.5879 0.773209 7.07136
              CHANNELS 3 Zrotation Xrotation Yrotation
              JOINT lThumb1
              {
                OFFSET 1.2192 -0.487915 3.41376
                CHANNELS 3 Zrotation Xrotation Yrotation
                JOINT lThumb2
                {
                  OFFSET 3.37035 -0.52449 3.41376
                  CHANNELS 3 Zrotation Xrotation Yrotation
                  End Site
                  {
                    OFFSET 1.78271 -1.18214 1.43049
                  }
                }
              }
              JOINT lIndex1
              {
                OFFSET 7.75947 0.938293 5.60832
                CHANNELS 3 Zrotation Xrotation Yrotation
                JOINT lIndex2
                {
                  OFFSET 2.54057 -0.884171 1.56538
                  CHANNELS 3 Zrotation Xrotation Yrotation
                  End Site
                  {
                    OFFSET 1.62519 -0.234802 1.16502
                  }
                }
              }
              JOINT lMid1
              {
                OFFSET 8.24714 1.18213 3.41376
                CHANNELS 3 Zrotation Xrotation Yrotation
                JOINT lMid2
                {
                  OFFSET 3.10165 -0.590103 1.0647
                  CHANNELS 3 Zrotation Xrotation Yrotation
                  End Site
                  {
                    OFFSET 2.48547 -0.328903 0.83742
                  }
                }
              }
              JOINT lRing1
              {
                OFFSET 8.82822 0.546677 1.51678
                CHANNELS 3 Zrotation Xrotation Yrotation
                JOINT lRing2
                {
                  OFFSET 2.60934 -0.819778 -0.0198488
                  CHANNELS 3 Zrotation Xrotation Yrotation
                  End Site
                  {
                    OFFSET 2.33842 -0.294052 0.168128
                  }
                }
              }
              JOINT lPinky1
              {
                OFFSET 8.27202 -0.0477905 -0.4584
                CHANNELS 3 Zrotation Xrotation Yrotation
                JOINT lPinky2
                {
                  OFFSET 1.82734 -0.647385 -0.700984
                  CHANNELS 3 Zrotation Xrotation Yrotation
                  End Site
                  {
                    OFFSET 1.69225 -0.51767 -0.607171
                  }
                }
              }
            }
          }
        }
      }
    }
  }
  JOINT rButtock
  {
    OFFSET -8.77824 4.35084 1.2192
    CHANNELS 3 Zrotation Xrotation Yrotation
    JOINT rThigh
    {
      OFFSET 0 -1.70687 -2.19456
      CHANNELS 3 Zrotation Xrotation Yrotation
      JOINT rShin
      {
        OFFSET 0 -36.8199 0.73152
        CHANNELS 3 Zrotation Xrotation Yrotation
        JOINT rFoot
        {
          OFFSET 0.73152 -45.1104 -5.12064
          CHANNELS 3 Zrotation Xrotation Yrotation
          End Site
          {
            OFFSET -1.1221 -3.69964 12.103
          }
        }
      }
    }
  }
  JOINT lButtock
  {
    OFFSET 8.77824 4.35084 1.2192
    CHANNELS 3 Zrotation Xrotation Yrotation
    JOINT lThigh
    {
      OFFSET 0 -1.70687 -2.19456
      CHANNELS 3 Zrotation Xrotation Yrotation
      JOINT lShin
      {
        OFFSET 0 -36.8199 0.73152
        CHANNELS 3 Zrotation Xrotation Yrotation
        JOINT lFoot
        {
          OFFSET -0.73152 -45.1104 -5.12064
          CHANNELS 3 Zrotation Xrotation Yrotation
          End Site
          {
            OFFSET 1.1221 -3.69964 12.103
          }
        }
      }
    }
  }
}
MOTION
Frames:	4
Frame Time:	0.00833333
0.0 0.0 0.0 0.0 0.0 0.0 0.0 0.0 0.0 0.0 0.0 0.0 0.0 0.0 0.0 0.0 0.0 0.0 0.0 0.0 0.0 0.0 0.0 0.0 0.0 0.0 0.0 0.0 0.0 0.0 0.0 0.0 0.0 0.0 0.0 0.0 0.0 0.0 0.0 0.0 0.0 0.0 0.0 0.0 0.0 0.0 0.0 0.0 0.0 0.0 0.0 0.0 0.0 0.0 0.0 0.0 0.0 0.0 0.0 0.0 0.0 0.0 0.0 0.0 0.0 0.0 0.0 0.0 0.0 0.0 0.0 0.0 0.0 0.0 0.0 0.0 0.0 0.0 0.0 0.0 0.0 0.0 0.0 0.0 0.0 0.0 0.0 0.0 0.0 0.0 0.0 0.0 0.0 0.0 0.0 0.0 0.0 0.0 0.0 0.0 0.0 0.0 0.0 0.0 0.0 0.0 0.0 0.0 0.0 0.0 0.0 0.0 0.0 0.0 0.0 0.0 0.0 0.0 0.0 0.0 0.0 0.0 0.0 0.0 0.0 0.0 0.0 0.0 0.0 0.0 0.0 0.0
-0.4311 -69.8849 -0.3675 -102.926767 48.267216 -159.798908 167.426078 21.977101 -0.0 137.463632 -19.33603 137.338969 119.623873 -66.248957 16.453559 -146.708106 -52.88443 73.750978 50.069703 -16.071768 -33.638071 -42.52295 -17.660282 43.527438 -5.669543 38.908141 28.525839 118.84241 5.174168 -9.143066 177.320974 83.526461 -30.904315 -97.205133 48.804334 89.296108 83.43922 -18.483338 43.193254 155.38113 0.078884 144.566649 -0.272997 -2.346951 -121.064207 169.72493 71.274666 -119.73773 36.68536 -46.266417 156.446695 -80.317286 -47.183159 58.056219 175.410147 -14.375467 -7.866537 140.520548 78.621544 62.475219 123.299328 53.186313 -154.710218 117.457848 -6.468239 -11.090609 169.101682 -2.745883 -165.325464 148.641814 60.370471 -155.523172 11.07347 3.37512 -135.490786 -113.917107 28.430669 -131.427969 172.929013 50.272882 -87.829542 126.37046 -6.003685 28.494285 172.860345 52.638842 -170.0988 80.662411 -58.935032 -56.575888 22.044198 -33.187633 90.861609 -100.675359 -47.052222 113.762418 99.225411 40.528207 49.79005 130.296146 48.295232 -56.362236 8.961369 -19.197274 129.420748 -103.991719 62.201867 -93.834254 1.004934 45.100468 -82.301346 15.184351 -47.050815 11.442223 -14.103402 -12.953357 21.03951 -160.345357 0.308009 -152.34746 7.432386 62.862958 77.027216 107.638035 -27.171793 51.750163 113.041713 -14.576747 -13.449063 78.46436 -1.400659 137.635222
1.304 -88.4324 1.9304999999999999 -58.547563 31.633311 -106.0408 -6.692427 -33.219075 -180.0 -177.340337 37.25145 -149.69962 135.284886 38.705843 -102.281712 -177.735301 38.821486 -156.055558 12.081648 9.804561 78.049165 -47.341156 -21.561734 46.958463 -140.675895 58.02911 62.794827 61.26144 -44.828182 -157.675676 -13.991073 3.841907 73.000166 -58.565233 -5.558587 99.60506 32.433057 66.890315 42.813702 -22.650547 1.123404 -90.94279 84.548231 -2.154706 -107.49274 -170.30176 -63.200551 23.914483 -172.977899 33.336507 36.134602 -124.811353 27.708619 -117.373796 64.151289 41.427496 123.510943 -8.409651 -0.590436 -133.922465 -86.686234 -12.370826 -22.221938 138.78363 28.471259 137.015473 19.290339 -70.622575 -162.955886 -7.973748 -20.633402 -118.317053 165.604565 -74.863372 36.574208 174.38009 40.326262 -95.311816 22.262738 -30.558741 152.250356 165.638416 -38.544686 -104.135287 100.021386 -47.843794 136.762664 -179.892681 43.94767 10.607482 -136.247329 15.800682 120.719979 24.415231 3.193159 -140.576089 81.264515 37.693567 122.301605 86.077111 42.772144 45.19391 142.65009 -69.926641 -16.913514 74.592185 5.519978 145.946509 82.023933 -3.907233 -0.0 -71.219569 -35.351595 180.0 -135.078765 -8.028434 97.80982 168.58498 -52.229211 75.00784 -51.885353 88.52664 -180.0 -98.240685 54.83544 96.752178 120.165021 21.578887 -171.325223 39.000651 12.662252 108.310496
-0.38530000000000003 -703.7967 7.6004000000000005 -54.299946 32.925802 53.45336 -157.871854 -11.998264 97.855174 137.941176 -15.627399 147.740731 -154.240253 -20.270014 -117.542168 145.734869 -58.135742 -6.989823 43.234437 21.716449 51.657752 -36.856766 -16.437621 46.871303 -159.35897 25.892321 -15.104455 -168.126011 -3.618335 -48.231626 101.848648 25.175123 103.885004 51.195762 -15.688033 -6.027887 114.388853 -61.080647 24.604146 179.827476 -25.75287 -13.247904 -24.532149 14.124662 -110.519328 80.915675 81.443331 168.334832 130.969646 4.659547 -20.506929 27.985511 52.638332 67.944609 -10.989581 24.443611 -177.915513 44.82704 -7.353668 161.027485 127.011419 -45.631488 102.98971 -32.735078 39.710059 -104.795047 165.750813 -55.795939 -131.607406 -44.265722 56.024916 43.187263 10.423644 5.223321 -116.710945 166.679201 -12.314786 -24.569865 175.369386 26.435621 -63.646452 -16.359006 -2.093796 172.300056 161.758027 46.228789 177.37495 -172.917418 -28.906355 139.590438 173.412602 18.216762 178.655584 -45.797784 -42.812901 128.84254 162.050926 -70.320837 96.582052 111.666071 -20.530562 -92.981102 -173.413939 -30.180524 -107.299243 108.537736 -36.054729 61.583027 89.125577 9.104127 -165.785135 112.189162 1.941275 1.966907 -49.573452 6.842667 20.194972 -29.796849 46.046867 -154.504973 -20.691988 -21.620238 134.28931 175.011298 43.67717 -180.0 132.726402 -10.485926 -136.752139 -68.317118 35.882383 171.278241
